<svg height="512" viewBox="0 0 64 64" width="512" xmlns="http://www.w3.org/2000/svg" xmlns:xlink="http://www.w3.org/1999/xlink"><linearGradient id="New_Gradient_Swatch_3" gradientUnits="userSpaceOnUse" x1="32" x2="32" y1="64.414" y2="4.414"><stop offset="0" stop-color="#006df0"/><stop offset="1" stop-color="#00e7f0"/></linearGradient><linearGradient id="New_Gradient_Swatch_3-2" x1="7" x2="7" xlink:href="#New_Gradient_Swatch_3" y1="64.414" y2="4.442"/><linearGradient id="New_Gradient_Swatch_3-3" x1="11" x2="11" xlink:href="#New_Gradient_Swatch_3" y1="64.414" y2="4.442"/><linearGradient id="New_Gradient_Swatch_3-4" x1="15" x2="15" xlink:href="#New_Gradient_Swatch_3" y1="64.414" y2="4.442"/><linearGradient id="New_Gradient_Swatch_3-6" x1="18.5" x2="18.5" xlink:href="#New_Gradient_Swatch_3" y1="64.414" y2="4.442"/><linearGradient id="New_Gradient_Swatch_3-7" x1="29.5" x2="29.5" xlink:href="#New_Gradient_Swatch_3" y1="64.414" y2="4.442"/><linearGradient id="New_Gradient_Swatch_3-8" x1="24" x2="24" xlink:href="#New_Gradient_Swatch_3" y1="64.414" y2="4.442"/><linearGradient id="New_Gradient_Swatch_3-9" x1="21" x2="21" xlink:href="#New_Gradient_Swatch_3" y1="64.414" y2="4.442"/><linearGradient id="New_Gradient_Swatch_3-10" x1="28" x2="28" xlink:href="#New_Gradient_Swatch_3" y1="64.414" y2="4.442"/><linearGradient id="New_Gradient_Swatch_3-11" x1="32.5" x2="32.5" xlink:href="#New_Gradient_Swatch_3" y1="64.414" y2="4.442"/><linearGradient id="New_Gradient_Swatch_3-12" x1="49.5" x2="49.5" xlink:href="#New_Gradient_Swatch_3" y1="64.414" y2="4.442"/><linearGradient id="New_Gradient_Swatch_3-14" x1="36" x2="36" xlink:href="#New_Gradient_Swatch_3" y1="64.414" y2="4.442"/><linearGradient id="New_Gradient_Swatch_3-15" x1="50.5" x2="50.5" xlink:href="#New_Gradient_Swatch_3" y1="64.414" y2="4.442"/><linearGradient id="New_Gradient_Swatch_3-20" x1="28.5" x2="28.5" xlink:href="#New_Gradient_Swatch_3" y1="64.414" y2="4.442"/><linearGradient id="New_Gradient_Swatch_3-21" x1="37" x2="37" xlink:href="#New_Gradient_Swatch_3" y1="64.414" y2="4.442"/><linearGradient id="New_Gradient_Swatch_3-22" x1="46" x2="46" xlink:href="#New_Gradient_Swatch_3" y1="64.414" y2="4.442"/><g id="Source_code" data-name="Source code"><path d="m57 2h-50a5.006 5.006 0 0 0 -5 5v50a5.006 5.006 0 0 0 5 5h50a5.006 5.006 0 0 0 5-5v-50a5.006 5.006 0 0 0 -5-5zm-50 2h50a3 3 0 0 1 3 3v3h-56v-3a3 3 0 0 1 3-3zm50 56h-50a3 3 0 0 1 -3-3v-45h56v45a3 3 0 0 1 -3 3z" fill="url(#New_Gradient_Swatch_3)"/><path d="m6 6h2v2h-2z" fill="url(#New_Gradient_Swatch_3-2)"/><path d="m10 6h2v2h-2z" fill="url(#New_Gradient_Swatch_3-3)"/><path d="m14 6h2v2h-2z" fill="url(#New_Gradient_Swatch_3-4)"/><path d="m11 56a1 1 0 0 1 -1-1v-38a1 1 0 0 1 2 0v38a1 1 0 0 1 -1 1z" fill="url(#New_Gradient_Swatch_3-3)"/><path d="m20 24a1 1 0 0 1 -.707-.293l-3-3a1 1 0 0 1 0-1.414l3-3a1 1 0 0 1 1.414 1.414l-2.293 2.293 2.293 2.293a1 1 0 0 1 -.707 1.707z" fill="url(#New_Gradient_Swatch_3-6)"/><path d="m28 24a1 1 0 0 1 -.707-1.707l2.293-2.293-2.293-2.293a1 1 0 0 1 1.414-1.414l3 3a1 1 0 0 1 0 1.414l-3 3a1 1 0 0 1 -.707.293z" fill="url(#New_Gradient_Swatch_3-7)"/><path d="m23 25a.968.968 0 0 1 -.243-.03 1 1 0 0 1 -.728-1.213l2-8a1 1 0 0 1 1.94.486l-2 8a1 1 0 0 1 -.969.757z" fill="url(#New_Gradient_Swatch_3-8)"/><path d="m19 29h4v2h-4z" fill="url(#New_Gradient_Swatch_3-9)"/><path d="m25 29h6v2h-6z" fill="url(#New_Gradient_Swatch_3-10)"/><path d="m23 33h19v2h-19z" fill="url(#New_Gradient_Swatch_3-11)"/><path d="m45 33h9v2h-9z" fill="url(#New_Gradient_Swatch_3-12)"/><path d="m23 37h2v2h-2z" fill="url(#New_Gradient_Swatch_3-8)"/><path d="m27 37h18v2h-18z" fill="url(#New_Gradient_Swatch_3-14)"/><path d="m47 37h7v2h-7z" fill="url(#New_Gradient_Swatch_3-15)"/><path d="m19 41h4v2h-4z" fill="url(#New_Gradient_Swatch_3-9)"/><path d="m25 41h6v2h-6z" fill="url(#New_Gradient_Swatch_3-10)"/><path d="m23 45h19v2h-19z" fill="url(#New_Gradient_Swatch_3-11)"/><path d="m45 45h9v2h-9z" fill="url(#New_Gradient_Swatch_3-12)"/><path d="m23 49h11v2h-11z" fill="url(#New_Gradient_Swatch_3-20)"/><path d="m36 49h2v2h-2z" fill="url(#New_Gradient_Swatch_3-21)"/><path d="m42 49h8v2h-8z" fill="url(#New_Gradient_Swatch_3-22)"/><path d="m19 54h4v2h-4z" fill="url(#New_Gradient_Swatch_3-9)"/><path d="m25 54h6v2h-6z" fill="url(#New_Gradient_Swatch_3-10)"/></g></svg>